PathFileType	4	(X/Y/Z)	D:\Long Term Storage\D'Arcy Smith\Coord17.trc
DataRate	CameraRate	NumFrames	NumMarkers	Units	OrigDataRate	OrigDataStartFrame	OrigNumFrames
120.00	120.00	      62	4	mm	120.00	1820	      4853
Frame#	Time	M1			M2			M3			M4			
		X1	Y1	Z1	X2	Y2	Z2	X3	Y3	Z3	X4	Y4	Z4	

1820	15.158	566.64209	425.12543	547.02399	991.65961	346.32718	387.97256							
1821	15.167	566.68170	421.66208	542.59088	992.41827	345.46085	385.46344							
1822	15.175	566.93848	417.55280	537.19611	993.22791	344.54514	382.55188							
1823	15.183	567.39502	413.07611	531.31311	993.99011	343.42728	379.30154							
1824	15.192	567.90466	407.92010	524.50580	994.88562	342.31686	375.13757							
1825	15.200	568.44104	402.56827	517.15240	995.67242	341.17383	370.64142							
1826	15.208	569.05469	396.73175	508.75595	996.52655	340.04056	365.90930							
1827	15.217	569.72162	390.61377	499.79044	997.34705	338.87823	360.27200							
1828	15.225	570.33124	384.28006	489.55368	998.16559	337.88000	354.65836							
1829	15.233	570.56787	377.44223	478.17123	998.94366	336.96133	348.26096							
1830	15.242	571.00995	370.85107	464.58942	999.68225	335.93433	341.51965							
1831	15.250	571.81122	364.44739	452.57867	1000.57611	335.24301	334.05914							
1832	15.258	572.35193	358.15964	439.48904	1001.40924	334.50571	326.06555							
1833	15.267	572.82184	351.93771	425.66846	1002.22833	333.97861	317.80725							
1834	15.275	573.63861	346.53305	411.59659	1002.89868	333.74042	309.33237							
1835	15.283	574.20734	341.57242	396.88928	1003.66333	333.31854	300.08490							
1836	15.292	574.56665	337.06418	382.44354	1004.25470	333.54111	291.01080							
1837	15.300	575.12592	333.20816	367.51660	1004.94696	333.86404	280.92938							
1838	15.308	575.27515	329.81497	352.77618	1005.59637	334.32196	270.69559							
1839	15.317	575.72534	327.61945	339.38019	1006.20325	335.38232	260.06210							
1840	15.325	575.66003	326.61121	324.87445	1005.70483	335.86017	249.98415							
1841	15.333	575.88013	326.43918	311.84726	1006.27753	337.41791	238.77078							
1842	15.342	576.04065	326.63730	299.78278	1007.17035	338.83197	227.52783							
1843	15.350	575.97156	327.53607	287.92514	1007.31128	340.81540	215.96568							
1844	15.358	575.86212	329.06693	276.43317	1007.87207	343.10385	204.27139							
1845	15.367	576.03668	331.02847	265.15298	1008.41296	345.61737	192.72842							
1846	15.375	576.14661	333.85669	253.31279	1009.22443	348.85364	180.85103							
1847	15.383	576.18134	336.75690	242.65358	1009.62903	351.99835	169.30399							
1848	15.392	576.10065	339.89713	230.30147	1009.66431	354.54013	158.16754							
1849	15.400	576.06421	343.21243	217.61430	1009.95679	358.05551	146.96510							
1850	15.408	575.78088	346.38245	202.95461	1010.32062	361.66226	135.97676							
1851	15.417	576.07245	350.90115	189.20197	1010.51172	365.45981	124.79073							
1852	15.425	575.91620	355.78055	174.26541	1010.78998	369.43872	113.95648							
1853	15.433	575.62854	360.94931	159.48253	1010.90100	373.50601	103.91834							
1854	15.442	575.01465	366.73837	144.41412	1011.00867	378.57385	91.22754							
1855	15.450	574.61456	373.07321	128.37491	1011.55701	383.57367	81.30842							
1856	15.458	574.18298	380.02826	112.91431	1011.69385	388.10010	72.12868							
1857	15.467	574.14258	388.28860	98.26525	1011.91327	392.69659	62.92253							
1858	15.475	573.47363	396.71375	83.93140	1011.95215	397.45132	54.57426							
1859	15.483	572.52618	405.25641	68.86729	1012.02655	402.04025	46.66304							
1860	15.492	571.58081	413.87619	55.01074	1012.07727	406.61154	39.05932							
1861	15.500	571.16180	423.05356	42.63232	1012.15674	411.18967	32.06986							
1862	15.508	569.96710	431.55460	30.79716	1012.17609	415.67191	25.68613							
1863	15.517	569.48456	439.77023	20.78123	1012.13586	420.07263	19.66947							
1864	15.525	568.78375	447.56067	11.90031	1012.08911	423.97092	14.32562							
1865	15.533	568.24939	454.55310	4.40484	1011.98706	427.87183	9.54970							
1866	15.542	567.81964	460.76520	-1.97682	1011.97455	431.28824	5.17735							
1867	15.550	567.31360	466.13705	-7.35420	1011.80243	433.31021	2.54803							
1868	15.558	567.14783	470.27798	-10.71382	1011.69299	435.97876	-0.80675							
1869	15.567	566.97919	473.52451	-13.64172	1011.93915	438.65363	-3.90435							
1870	15.575	566.73651	475.86780	-15.46497	1011.96710	440.75662	-6.07751							
1871	15.583	566.65088	477.17526	-16.43671	1011.98584	442.42303	-8.14081							
1872	15.592	566.64191	477.53397	-16.47668	1012.05377	443.70187	-9.41235							
1873	15.600	566.58777	477.07123	-15.70183	1012.10114	444.50790	-10.30409							
1874	15.608	566.72437	475.65060	-14.27988	1012.09387	444.90149	-10.72952							
1875	15.617	566.91345	473.44098	-12.05927	1012.14136	444.75134	-10.67384							
1876	15.625	567.06519	470.52271	-9.51190	1012.21014	444.19141	-10.17365							
1877	15.633	567.27631	467.00204	-6.81066	1012.24384	443.18149	-9.31071							
1878	15.642	567.62659	462.43671	-2.79656	1012.31769	441.79471	-7.97029							
1879	15.650	567.75092	457.90125	1.28817	1012.41418	439.94144	-6.10596							
1880	15.658	567.93011	452.77472	5.64442	1012.42957	437.66638	-4.05032							
1881	15.667	567.94824	447.21545	10.34786	1012.29987	434.88492	-1.32468							
